<svg width="37" height="34" viewBox="0 0 37 34" fill="none" xmlns="http://www.w3.org/2000/svg">
<path fill-rule="evenodd" clip-rule="evenodd" d="M7.55388 2.53146C9.53589 1.44416 11.7602 0.874463 14.0208 0.875123C16.0249 0.876706 18.0031 1.3265 19.8108 2.19157C21.6185 3.05665 23.2098 4.31509 24.4682 5.87474C25.7266 7.43439 26.6202 9.25576 27.0836 11.2055C27.547 13.1552 27.5684 15.1838 27.1463 17.1429C26.7242 19.1019 25.8693 20.9418 24.6441 22.5277C23.419 24.1135 21.8546 25.4053 20.0656 26.3084C18.2766 27.2115 16.3083 27.703 14.3048 27.7469C12.3012 27.7908 10.3132 27.3861 8.48638 26.5622C6.23247 27.0818 3.80476 27.5297 2.68855 27.7268C2.40329 27.7778 2.10991 27.7585 1.83377 27.6707C1.55762 27.5829 1.30702 27.4291 1.10362 27.2227C0.900222 27.0163 0.750146 26.7635 0.666365 26.4861C0.582584 26.2087 0.567618 25.9151 0.62276 25.6306C0.985108 23.7448 1.39193 21.8678 1.84288 20.0012C0.885871 17.9531 0.461042 15.6966 0.607726 13.4407C0.75441 11.1848 1.46787 9.0024 2.68205 7.09547C3.89622 5.18855 5.57188 3.61877 7.55388 2.53146ZM23.0903 33.1251C19.7006 33.1304 16.4352 31.8498 13.9528 29.5418C15.269 29.558 16.5819 29.4038 17.8586 29.0831C19.4579 29.9747 21.2592 30.441 23.0903 30.4376C24.8103 30.4376 26.4335 30.0345 27.874 29.3178L28.3094 29.101L28.7824 29.2121C30.4343 29.6063 32.3048 30.013 33.6915 30.305C33.378 28.9613 32.9498 27.1607 32.5413 25.5571L32.4159 25.0626L32.6488 24.6093C33.4103 23.1366 33.8403 21.465 33.8403 19.6876C33.8412 17.8903 33.3911 16.1215 32.5312 14.5433C31.6714 12.965 30.4292 11.6278 28.9186 10.654C28.6028 9.37367 28.1209 8.14009 27.4852 6.98471C29.2641 7.60056 30.8938 8.58317 32.2688 9.86889C33.6438 11.1546 34.7334 12.7148 35.4671 14.4484C36.2008 16.182 36.5622 18.0503 36.528 19.9325C36.4937 21.8147 36.0645 23.6686 35.2682 25.3744C35.7215 27.1804 36.1802 29.1369 36.4704 30.3964C36.5555 30.7613 36.5472 31.1418 36.4464 31.5026C36.3455 31.8635 36.1553 32.1931 35.8933 32.461C35.6313 32.7289 35.306 32.9264 34.9475 33.0353C34.5889 33.1441 34.2088 33.1609 33.842 33.0839C32.5395 32.8116 30.4916 32.3744 28.6229 31.9372C26.9334 32.7005 25.0611 33.1251 23.0903 33.1251ZM10.0745 17.7433C9.52224 17.7433 9.07452 18.191 9.07452 18.7433C9.07452 19.2956 9.52224 19.7433 10.0745 19.7433H17.6286C18.1809 19.7433 18.6286 19.2956 18.6286 18.7433C18.6286 18.191 18.1809 17.7433 17.6286 17.7433H10.0745ZM5.29742 14.0944C5.29742 13.5421 5.74514 13.0944 6.29742 13.0944H21.4055C21.9578 13.0944 22.4055 13.5421 22.4055 14.0944C22.4055 14.6466 21.9578 15.0944 21.4055 15.0944H6.29742C5.74514 15.0944 5.29742 14.6466 5.29742 14.0944ZM10.0745 8.44592C9.52224 8.44592 9.07452 8.89364 9.07452 9.44592C9.07452 9.99821 9.52224 10.4459 10.0745 10.4459H17.6286C18.1809 10.4459 18.6286 9.99821 18.6286 9.44592C18.6286 8.89364 18.1809 8.44592 17.6286 8.44592H10.0745Z" fill="#F7F7F7"/>
</svg>
