<svg width="48" height="48" viewBox="0 0 48 48" fill="none" xmlns="http://www.w3.org/2000/svg">
<path opacity="0.48" d="M29.0621 14.5345C29.3843 13.6639 30.6157 13.6639 30.9379 14.5345L34.7021 24.7071C34.8033 24.9808 35.0192 25.1967 35.2929 25.2979L45.4655 29.0622C46.3361 29.3843 46.3361 30.6157 45.4655 30.9379L35.2929 34.7021C35.0192 34.8033 34.8033 35.0192 34.7021 35.2929L30.9379 45.4655C30.6157 46.3361 29.3843 46.3361 29.0621 45.4655L25.2979 35.2929C25.1967 35.0192 24.9808 34.8033 24.7071 34.7021L14.5345 30.9379C13.6639 30.6157 13.6639 29.3843 14.5345 29.0622L24.7071 25.2979C24.9808 25.1967 25.1967 24.9808 25.2979 24.7071L29.0621 14.5345Z" fill="#43E59A"/>
<path d="M21.0622 2.53451C21.3843 1.66389 22.6157 1.66389 22.9379 2.53451L27.7824 15.6268C27.8837 15.9005 28.0995 16.1163 28.3732 16.2176L41.4655 21.0622C42.3361 21.3843 42.3361 22.6157 41.4655 22.9379L28.3732 27.7824C28.0995 27.8837 27.8837 28.0995 27.7824 28.3732L22.9379 41.4655C22.6157 42.3361 21.3843 42.3361 21.0622 41.4655L16.2176 28.3732C16.1163 28.0995 15.9005 27.8837 15.6268 27.7824L2.53451 22.9379C1.66389 22.6157 1.66389 21.3843 2.53451 21.0622L15.6268 16.2176C15.9005 16.1163 16.1163 15.9005 16.2176 15.6268L21.0622 2.53451Z" fill="#43E59A"/>
</svg>
