<svg width="22" height="18" viewBox="0 0 22 18" fill="none" xmlns="http://www.w3.org/2000/svg">
<path d="M15.5 17.75H6.5C5.75 17.75 5.2 17.72 4.73 17.65C1.41 17.29 0.75 15.3 0.75 12V6C0.75 2.7 1.41 0.71 4.76 0.34C5.2 0.28 5.75 0.25 6.5 0.25H15.5C16.25 0.25 16.8 0.28 17.27 0.35C20.59 0.71 21.25 2.7 21.25 6V12C21.25 15.3 20.59 17.29 17.24 17.66C16.8 17.72 16.25 17.75 15.5 17.75ZM6.5 1.75C5.82 1.75 5.34 1.78 4.95 1.83C2.92 2.06 2.25 2.69 2.25 6V12C2.25 15.31 2.92 15.94 4.92 16.17C5.34 16.23 5.82 16.25 6.5 16.25H15.5C16.18 16.25 16.66 16.22 17.05 16.17C19.08 15.95 19.75 15.31 19.75 12V6C19.75 2.69 19.08 2.06 17.08 1.83C16.66 1.77 16.18 1.75 15.5 1.75H6.5Z" fill="white"/>
<path d="M16 7.75H12.5C12.09 7.75 11.75 7.41 11.75 7C11.75 6.59 12.09 6.25 12.5 6.25H16C16.41 6.25 16.75 6.59 16.75 7C16.75 7.41 16.41 7.75 16 7.75Z" fill="white"/>
<path d="M9.0996 8C8.54961 8 8.09961 7.55 8.09961 7C8.09961 6.45 8.53961 6 9.0996 6H9.1096C9.6596 6 10.1096 6.45 10.1096 7C10.1096 7.55 9.6596 8 9.0996 8Z" fill="white"/>
<path d="M6.09961 8C5.54961 8 5.09961 7.55 5.09961 7C5.09961 6.45 5.53961 6 6.09961 6C6.64961 6 7.09961 6.45 7.09961 7C7.09961 7.55 6.65961 8 6.09961 8Z" fill="white"/>
<path d="M15.9998 13.25H6.01977C5.60977 13.25 5.25977 12.91 5.25977 12.5C5.25977 12.09 5.58977 11.75 5.99977 11.75H15.9998C16.4098 11.75 16.7498 12.09 16.7498 12.5C16.7498 12.91 16.4098 13.25 15.9998 13.25Z" fill="white"/>
</svg>
