<svg width="30" height="35" viewBox="0 0 30 35" fill="none" xmlns="http://www.w3.org/2000/svg">
<path d="M15 3.75004C12.3766 3.75004 10.25 5.87669 10.25 8.50004V16.4167C10.25 19.0401 12.3766 21.1667 15 21.1667C17.6234 21.1667 19.75 19.0401 19.75 16.4167V8.50004C19.75 5.87669 17.6234 3.75004 15 3.75004ZM16.5833 30.5797V33.0417C16.5833 33.9162 15.8745 34.625 15 34.625C14.1255 34.625 13.4167 33.9162 13.4167 33.0417V30.5797C6.29175 29.7921 0.75 23.7516 0.75 16.4167C0.75 15.5423 1.45888 14.8334 2.33333 14.8334C3.20778 14.8334 3.91667 15.5423 3.91667 16.4167C3.91667 22.5379 8.87884 27.5 15 27.5C21.1212 27.5 26.0833 22.5379 26.0833 16.4167C26.0833 15.5423 26.7922 14.8334 27.6667 14.8334C28.5411 14.8334 29.25 15.5423 29.25 16.4167C29.25 23.7516 23.7083 29.7921 16.5833 30.5797ZM15 0.583374C19.3723 0.583374 22.9167 4.12779 22.9167 8.50004V16.4167C22.9167 20.789 19.3723 24.3334 15 24.3334C10.6277 24.3334 7.08333 20.789 7.08333 16.4167V8.50004C7.08333 4.12779 10.6277 0.583374 15 0.583374Z" fill="#010101"/>
</svg>
