<svg width="550" height="561" viewBox="0 0 550 561" fill="none" xmlns="http://www.w3.org/2000/svg">
<path d="M174.99 546.02C165.565 548.545 156.412 550.766 147.576 552.665C99.0702 563.1 61.7217 563.748 36.5681 554.592C10.8339 545.227 -1.40176 525.69 0.196981 496.518C5.05492 407.96 17.7064 350.489 26.0779 312.463C29.8459 295.347 32.8223 281.826 33.6704 271.6C35.0794 254.58 53.5029 227.55 81.7472 201.055C112.144 172.544 147.06 150.855 177.549 141.55C219.597 128.717 262.434 104.153 290.964 85.8041C324.199 64.4304 357.69 38.7359 380.551 17.0699C395.307 3.08277 412.903 -1.97294 431.429 2.44792C463.508 10.1049 494.23 45.1227 511.605 93.8324C519.838 116.919 528.354 140.795 535.109 164.226C542.579 190.132 547.02 212.695 548.69 233.202C550.68 257.688 548.881 279.967 543.189 301.307C536.832 325.134 525.799 347.28 509.458 369.012C481.551 406.128 391.988 461.991 291.662 504.86C250.619 522.395 210.838 536.411 174.989 546.017L174.99 546.02ZM405.742 3.66984C397.027 6.0049 388.792 10.7591 381.299 17.8622C358.391 39.5746 324.841 65.3149 291.555 86.7211C262.967 105.104 220.035 129.724 177.866 142.593C147.534 151.852 112.768 173.448 82.4896 201.853C54.4339 228.17 36.1413 254.932 34.7535 271.695C33.8996 281.998 30.9157 295.547 27.1396 312.703C18.7747 350.697 6.13802 408.112 1.28302 496.583C-0.286859 525.218 11.7091 544.393 36.9413 553.578C61.8986 562.659 99.0448 561.997 147.35 551.609C189.713 542.499 239.467 525.99 291.235 503.869C391.407 461.068 480.787 405.348 508.592 368.368C524.847 346.748 535.819 324.727 542.141 301.034C547.801 279.814 549.592 257.657 547.609 233.296C543.893 187.592 526.958 140.117 510.583 94.2036C493.333 45.835 462.908 11.0825 431.178 3.51177C422.417 1.41965 413.87 1.49575 405.743 3.67333L405.742 3.66984Z" fill="white"/>
<path d="M176.095 526.803C168.64 528.801 161.379 530.586 154.336 532.147C109.916 541.992 75.7241 542.833 52.7012 534.645C29.429 526.367 18.2571 508.938 19.495 482.842C22.6537 403.993 33.3757 349.355 40.4685 313.203C43.7987 296.231 46.4274 282.826 47.2297 272.484C48.5322 255.767 65.4141 229.967 91.288 205.148C118.993 178.572 151.401 158.098 180.201 148.973C218.936 136.945 258.458 114.572 284.79 97.9259C315.725 78.3673 345.88 55.7959 367.522 35.9924C381.182 23.4979 397.401 19.1257 414.431 23.3482C443.991 30.6758 472.243 62.8975 488.158 107.446C503.214 149.461 518.785 192.907 522.212 235.725C524.018 258.279 522.352 278.817 517.119 298.514C511.285 320.484 501.176 340.914 486.227 360.97C460.672 395.485 378.486 447.509 286.372 487.484C247.505 504.35 209.842 517.765 176.093 526.808L176.095 526.803ZM390.048 24.3741C382.285 26.4542 374.936 30.5964 368.214 36.7435C346.53 56.5846 316.323 79.1998 285.339 98.7865C258.953 115.466 219.349 137.884 180.511 149.946C151.856 159.026 119.593 179.412 91.9986 205.883C66.2977 230.535 49.5364 256.086 48.2519 272.562C47.4471 282.965 44.81 296.395 41.4768 313.398C34.3879 349.522 23.6782 404.108 20.5227 482.885C19.3091 508.484 30.2512 525.574 53.0506 533.683C75.8871 541.804 109.892 540.95 154.121 531.148C192.988 522.536 238.581 507.108 285.973 486.542C377.94 446.632 459.952 394.745 485.414 360.356C500.29 340.406 510.339 320.09 516.141 298.248C521.343 278.664 522.999 258.241 521.201 235.801C517.784 193.115 502.237 149.734 487.202 107.781C471.398 63.551 443.423 31.5774 414.188 24.3312C405.878 22.2718 397.758 22.3046 390.047 24.3706L390.048 24.3741Z" fill="white"/>
<path d="M177.273 507.606C171.753 509.085 166.358 510.429 161.091 511.638C120.759 520.898 89.7183 521.928 68.833 514.707C48.0229 507.515 37.9174 492.191 38.7995 469.161C40.2839 399.513 48.7951 349.651 55.0105 313.248C57.8316 296.727 60.0568 283.677 60.798 273.359C62.0126 256.692 76.9808 232.72 100.838 209.232C125.863 184.592 155.762 165.333 182.864 156.389C247.066 136.047 320.679 84.5554 354.499 54.9101C367.063 43.9081 381.912 40.2177 397.449 44.2408C424.488 51.24 450.263 80.671 464.719 121.048C477.797 157.331 492.616 198.458 495.742 238.24C497.361 258.861 495.832 277.659 491.062 295.71C485.747 315.826 476.569 334.537 463.004 352.918C451.359 368.93 427.328 388.831 393.513 410.461C361.033 431.239 321.103 452.421 281.086 470.108C244.419 486.313 208.889 499.134 177.277 507.605L177.273 507.606ZM374.329 45.0671C367.525 46.8903 361.066 50.423 355.126 55.6263C321.249 85.3244 247.492 136.91 183.155 157.296C156.192 166.196 126.429 185.373 101.504 209.911C77.8099 233.239 62.946 256.985 61.7462 273.428C61.0022 283.791 58.7712 296.861 55.9461 313.41C49.7382 349.785 41.2351 399.606 39.7488 469.191C38.8854 491.76 48.7747 506.767 69.1431 513.808C89.8587 520.969 120.72 519.927 160.875 510.707C196.244 502.586 237.682 488.246 280.695 469.235C320.671 451.566 360.552 430.409 392.994 409.656C426.706 388.091 450.648 368.278 462.227 352.355C475.724 334.071 484.851 315.462 490.131 295.469C494.873 277.522 496.395 258.828 494.784 238.316C491.669 198.662 476.872 157.598 463.813 121.373C449.462 81.2903 423.939 52.0877 397.202 45.1651C389.324 43.1246 381.627 43.1116 374.326 45.068L374.329 45.0671Z" fill="white"/>
<path d="M178.54 488.432C174.905 489.406 171.339 490.313 167.829 491.153C131.584 499.823 103.7 501.049 84.9492 494.796C66.6054 488.678 57.5723 475.453 58.0986 455.489C57.9016 394.399 64.7181 346.861 69.6966 312.153C71.8418 297.195 73.6942 284.279 74.3601 274.24C75.4697 257.866 88.9362 235.091 110.378 213.322C132.74 190.621 160.127 172.571 185.519 163.808C210.915 155.568 240.972 141.168 272.449 122.161C297.713 106.905 322.87 89.2885 341.472 73.8286C352.939 64.3123 366.426 61.3052 380.476 65.1386C404.986 71.8226 428.28 98.4603 441.272 134.659C455.045 172.614 466.657 206.799 469.264 240.764C470.698 259.453 469.3 276.514 464.994 292.92C460.2 311.177 451.95 328.175 439.77 344.881C429.233 359.682 407.541 378.026 377.039 397.929C347.858 416.969 311.898 436.443 275.779 452.764C241.339 468.324 207.972 480.557 178.536 488.445L178.54 488.432ZM358.579 65.7421C352.74 67.3066 347.185 70.2375 342.037 74.509C323.404 89.9957 298.207 107.642 272.907 122.918C241.372 141.96 211.252 156.392 185.8 164.647C160.543 173.366 133.279 191.334 111.013 213.942C89.7154 235.564 76.3429 258.131 75.2492 274.298C74.5812 284.371 72.7256 297.303 70.5772 312.277C65.6026 346.957 58.7907 394.456 58.9896 455.498C58.4738 475.039 67.3017 487.974 85.233 493.952C103.828 500.153 131.548 498.918 167.628 490.289C199.506 482.657 236.78 469.403 275.42 451.942C311.499 435.64 347.417 416.192 376.559 397.174C406.969 377.333 428.577 359.067 439.054 344.349C451.171 327.731 459.373 310.832 464.139 292.685C468.42 276.376 469.809 259.41 468.384 240.823C465.785 206.973 454.194 172.85 440.443 134.952C427.546 99.0205 404.48 72.5949 380.246 65.987C372.79 63.9534 365.491 63.8863 358.585 65.7367L358.579 65.7421Z" fill="white"/>
<path d="M179.924 469.303C178.115 469.787 176.327 470.252 174.553 470.697C142.395 478.782 117.664 480.201 101.047 474.912C85.1706 469.86 77.2116 458.726 77.3968 441.814C75.4312 388.48 80.683 342.632 84.518 309.156C86.0385 295.883 87.3537 284.418 87.9186 275.122C88.941 258.786 100.606 237.752 119.918 217.412C139.637 196.644 164.512 179.811 188.171 171.231C235.397 155.471 293.986 119.499 328.443 92.7481C338.823 84.7067 350.953 82.3854 363.521 86.0351C385.49 92.4147 406.299 116.257 417.826 148.262C429.659 180.6 440.47 212.201 442.786 243.276C444.036 260.029 442.772 275.354 438.928 290.115C434.657 306.515 427.333 321.793 416.543 336.826C407.114 350.416 387.756 367.214 360.568 385.394C334.687 402.699 302.69 420.466 270.473 435.423C238.295 450.358 207.128 462.014 179.925 469.306L179.924 469.303ZM342.785 86.395C337.929 87.6961 333.284 90.0348 328.949 93.3918C294.439 120.183 235.75 156.215 188.445 172C164.912 180.535 140.152 197.293 120.518 217.974C101.335 238.179 89.7549 259.025 88.7452 275.17C88.1779 284.486 86.8621 295.962 85.341 309.246C81.5064 342.696 76.2601 388.509 78.2224 441.802C78.0431 458.331 85.807 469.199 101.301 474.129C117.772 479.37 142.352 477.947 174.358 469.899C202.74 462.755 235.861 450.583 270.129 434.672C302.306 419.734 334.265 401.991 360.114 384.706C387.219 366.582 406.5 349.862 415.876 336.35C426.613 321.398 433.892 306.207 438.138 289.907C441.96 275.234 443.214 259.999 441.974 243.337C439.667 212.364 428.871 180.823 417.061 148.541C405.622 116.779 385.025 93.1311 363.301 86.8245C356.243 84.7745 349.325 84.65 342.79 86.401L342.785 86.395Z" fill="white"/>
<path d="M181.467 450.224L181.268 450.278C153.199 457.78 131.62 459.392 117.137 455.072C103.726 451.075 96.8501 442.011 96.702 428.136C92.7233 381.648 96.5898 336.227 99.4136 303.063C100.298 292.676 101.063 283.708 101.49 275.996C102.409 259.932 112.609 240.066 129.467 221.496C146.569 202.658 168.937 187.036 190.836 178.643C211.185 171.617 234.487 160.765 260.111 146.391C279.385 135.577 299.544 122.918 315.425 111.657C324.725 105.085 335.506 103.451 346.612 106.934C366.032 113.023 384.337 134.07 394.387 161.863C404.376 188.873 414.294 217.604 416.316 245.791C417.378 260.612 416.251 274.192 412.868 287.316C409.119 301.856 402.723 315.42 393.317 328.776C376.819 353.322 325.31 389.229 265.153 418.116C235.294 432.456 206.362 443.554 181.467 450.224ZM326.918 107.015C323.06 108.049 319.35 109.807 315.857 112.275C299.957 123.549 279.769 136.227 260.475 147.05C234.815 161.445 211.469 172.313 191.089 179.35C169.31 187.7 147.048 203.245 130.023 222.002C113.278 240.449 103.152 260.145 102.24 276.038C101.812 283.759 101.048 292.734 100.161 303.125C97.338 336.262 93.4761 381.645 97.4524 428.096C97.5993 441.63 104.293 450.451 117.35 454.344C131.699 458.622 153.138 457.009 181.071 449.544L181.27 449.49C206.12 442.832 235.003 431.75 264.822 417.429C324.87 388.594 376.253 352.792 392.69 328.34C402.048 315.054 408.405 301.572 412.133 287.119C415.494 274.08 416.615 260.577 415.561 245.839C413.547 217.752 403.644 189.081 393.675 162.117C383.702 134.54 365.582 113.668 346.384 107.651C339.691 105.552 333.113 105.351 326.924 107.01L326.918 107.015Z" fill="white"/>
<path d="M183.122 431.269C161.488 437.066 144.709 438.426 133.203 435.309C122.262 432.343 116.475 425.341 116 414.487C109.414 373.968 112.181 326.613 114.201 292.031C114.516 286.604 114.816 281.481 115.049 276.877C115.882 260.829 124.391 242.615 139.007 225.586C153.748 208.418 173.095 194.381 193.488 186.062C207.75 180.922 246.886 165.239 302.398 130.575C310.631 125.462 320.086 124.517 329.742 127.853C346.584 133.669 362.369 151.915 370.937 175.467C379.179 197.453 388.116 223.026 389.836 248.308C391.656 275.027 385.194 298.713 370.084 320.727C362.86 331.916 348.166 345.632 327.602 360.388C308.014 374.441 284.576 388.436 259.82 400.857C234.253 413.683 209.406 423.736 187.963 429.923C186.323 430.396 184.707 430.844 183.119 431.27L183.122 431.269ZM310.955 127.582C308.122 128.341 305.378 129.537 302.765 131.159C293.883 136.705 275.771 147.713 254.259 159.116C231.674 171.091 211.315 180.371 193.738 186.703C173.458 194.977 154.204 208.944 139.536 226.032C125.019 242.945 116.568 261.012 115.743 276.909C115.511 281.512 115.212 286.638 114.897 292.069C112.878 326.625 110.113 373.946 116.691 414.395L116.695 414.436C117.147 424.966 122.763 431.763 133.388 434.641C145.444 437.907 164.253 436.048 187.777 429.258C209.182 423.08 233.985 413.047 259.515 400.238C284.238 387.833 307.648 373.857 327.207 359.827C347.704 345.123 362.332 331.469 369.517 320.347C384.542 298.461 390.962 274.913 389.156 248.359C387.442 223.169 378.524 197.651 370.298 175.713C361.798 152.345 346.177 134.262 329.525 128.511C323.144 126.305 316.852 126.009 310.964 127.587L310.955 127.582Z" fill="white"/>
<path d="M185.49 412.355C170.129 416.472 157.718 417.62 149.257 415.669C140.76 413.708 136.067 408.717 135.303 400.829C124.681 365.708 127.436 304.077 128.61 277.755C130.135 244.867 157.907 210.211 196.143 193.481C226.963 181.761 262.119 163.581 283.124 152.723C285.354 151.571 287.449 150.489 289.383 149.491C296.568 145.816 304.728 145.582 312.968 148.806C327.197 154.375 340.424 169.803 347.492 189.073C354.942 208.578 362.019 229.558 363.361 250.827C364.792 273.522 359.395 293.753 346.855 312.68C334.813 332.335 298.559 360.198 254.491 383.657C233.302 394.936 212.613 403.926 194.663 409.658C191.502 410.666 188.44 411.569 185.488 412.36L185.49 412.355ZM294.822 148.06C293.055 148.533 291.336 149.196 289.667 150.048C287.732 151.042 285.641 152.124 283.412 153.279C262.397 164.144 227.222 182.336 196.381 194.061C158.366 210.695 130.752 245.125 129.237 277.785C128.06 304.083 125.308 365.667 135.912 400.681L135.928 400.74C136.651 408.35 141.181 413.168 149.398 415.062C159.377 417.363 174.967 415.288 194.477 409.063C212.394 403.345 233.049 394.371 254.202 383.109C298.174 359.698 334.336 331.924 346.331 312.349C374.178 270.322 361.886 228.519 346.912 189.3C339.901 170.187 326.809 154.898 312.743 149.395C306.589 146.986 300.491 146.548 294.828 148.066L294.822 148.06Z" fill="white"/>
<path d="M188.242 393.77C178.852 396.286 171.024 397.184 165.347 396.263C159.235 395.267 155.623 392.214 154.615 387.191C149.009 378.36 145.167 361.769 143.19 337.879C141.751 320.473 141.38 298.88 142.175 278.634C143.5 246.145 164.669 217.088 198.803 200.902C210.957 195.94 223.539 190.52 235.708 185.277C251.447 178.497 266.313 172.097 276.37 168.406C284.846 165.333 294.54 167.411 303.667 174.253C312.319 180.739 319.744 191.098 324.05 202.675C334.388 229.042 336.34 243.602 336.887 253.343C337.936 272.004 333.597 288.782 323.629 304.63C313.758 321.934 285.252 345.66 249.232 366.536C226.225 379.872 204.804 389.336 188.243 393.773L188.242 393.77ZM278.403 168.352C277.784 168.518 277.172 168.712 276.563 168.931C266.519 172.615 251.664 179.012 235.932 185.79C223.759 191.034 211.173 196.452 199.029 201.411C165.102 217.5 144.05 246.377 142.735 278.653C141.942 298.879 142.31 320.447 143.747 337.831C145.718 361.671 149.546 378.194 155.116 386.933L155.143 386.978L155.156 387.027C156.098 391.829 159.554 394.75 165.436 395.711C181.002 398.25 213.004 386.884 248.948 366.05C284.887 345.222 313.318 321.577 323.147 304.343C333.058 288.589 337.366 271.921 336.327 253.377C335.29 234.914 328.942 216.691 323.523 202.88C319.257 191.394 311.898 181.126 303.33 174.703C295.016 168.471 286.24 166.256 278.404 168.356L278.403 168.352Z" fill="white"/>
<path d="M191.787 375.81C187.904 376.851 184.532 377.376 181.794 377.334C177.791 377.268 175.155 376.011 173.963 373.592C165.481 370.061 161.018 351.558 158.766 336.632C156.227 319.797 155.096 298.446 155.736 279.508C156.307 263.211 160.197 249.588 167.631 237.855C175.223 225.874 186.287 216.214 201.457 208.317C224.814 197.795 249.112 189.557 263.37 187.325C270.32 186.268 278.061 188.877 285.165 194.665C291.809 200.082 297.437 207.959 300.6 216.279C309.511 238.102 317.54 266.945 300.398 296.576C292.766 311.419 271.823 331.159 244.383 349.362C224.329 362.666 205.078 372.249 191.784 375.811L191.787 375.81ZM251.286 190.492C237.348 194.226 219.245 200.845 201.677 208.76C186.599 216.606 175.599 226.211 168.054 238.116C160.667 249.773 156.8 263.315 156.234 279.52C155.031 314.914 159.824 367.366 174.239 373.166L174.328 373.202L174.37 373.288C175.452 375.579 177.954 376.771 181.803 376.834C193.824 377.029 218.281 366.081 244.113 348.943C271.487 330.785 292.37 311.117 299.969 296.332C317.008 266.878 309.012 238.172 300.145 216.454L300.143 216.447C297.008 208.205 291.433 200.4 284.852 195.038C277.858 189.336 270.255 186.769 263.446 187.803C259.944 188.352 255.836 189.265 251.284 190.485L251.286 190.492Z" fill="white"/>
<path d="M197.464 359.562C195.788 360.011 194.426 360.147 193.436 359.937C190.749 361.091 188.178 360.855 185.793 359.246C178.813 354.537 174.807 339.209 172.673 327.173C170.135 312.856 168.878 295.363 169.306 280.379C169.8 263.428 172.23 251.575 177.185 241.941C182.468 231.669 191.031 223.339 204.125 215.728C219.29 207.828 237.45 204.108 250.394 206.249C262.01 208.22 273.128 219.808 277.163 229.872C286.199 250.485 286.203 270.217 277.18 288.512C273.976 295.867 268.148 304.202 259.868 313.281C252.697 321.14 243.869 329.321 234.327 336.935C219.392 348.857 205.152 357.495 197.466 359.554L197.464 359.562ZM193.392 359.492L193.46 359.507C194.411 359.728 195.734 359.598 197.368 359.161C214.286 354.627 264.377 316.816 276.785 288.341C285.755 270.153 285.747 250.546 276.761 230.051L276.759 230.044C272.768 220.088 261.785 208.625 250.314 206.679C237.457 204.553 219.401 208.255 204.321 216.11C191.308 223.673 182.8 231.943 177.554 242.142C172.631 251.715 170.216 263.512 169.723 280.394C169.295 295.353 170.554 312.811 173.086 327.104C175.205 339.057 179.17 354.273 186.022 358.896C188.296 360.43 190.753 360.641 193.32 359.518L193.384 359.49L193.392 359.492Z" fill="white"/>
<path d="M205.906 350.849C204.23 351.298 202.596 351.203 201.013 350.556C197.044 348.941 191.399 342.972 187.03 323.727C184.101 310.826 182.544 294.953 182.862 281.265C183.237 265.088 183.686 254.642 186.723 246.051C189.864 237.162 195.672 230.529 206.777 223.162C212.896 219.102 219.419 217.935 226.159 219.692C240.733 223.497 251.759 239.68 253.707 243.482C257.346 250.584 258.346 259.297 256.676 269.38C255.237 278.061 251.829 287.774 246.544 298.261C236.991 317.212 222.855 335.431 212.813 346.162C210.448 348.687 208.138 350.254 205.906 350.852L205.906 350.849ZM214.466 220.008C211.912 220.692 209.415 221.841 206.977 223.461C195.946 230.781 190.176 237.359 187.062 246.17C184.046 254.714 183.597 265.13 183.224 281.273C182.645 306.23 188.693 345.146 201.149 350.224C204.685 351.666 208.518 350.216 212.544 345.915C222.569 335.204 236.68 317.018 246.215 298.098C251.484 287.646 254.882 277.965 256.311 269.321C257.969 259.315 256.982 250.678 253.381 243.648C251.448 239.876 240.507 223.813 226.062 220.044C222.107 219.013 218.228 219.004 214.46 220.013L214.466 220.008Z" fill="white"/>
</svg>
