<svg width="551" height="561" viewBox="0 0 551 561" fill="none" xmlns="http://www.w3.org/2000/svg">
<path d="M175.906 546.02C166.481 548.545 157.327 550.766 148.492 552.665C99.9856 563.1 62.6371 563.748 37.4835 554.592C11.7493 545.227 -0.486355 525.69 1.11239 496.518C5.97033 407.96 18.6218 350.489 26.9933 312.463C30.7613 295.347 33.7377 281.826 34.5858 271.6C35.9948 254.58 54.4183 227.55 82.6626 201.055C113.059 172.544 147.976 150.855 178.464 141.55C220.512 128.717 263.35 104.153 291.88 85.8041C325.115 64.4304 358.606 38.7359 381.466 17.0699C396.223 3.08276 413.818 -1.97294 432.345 2.44791C464.423 10.1049 495.145 45.1227 512.52 93.8324C520.754 116.919 529.27 140.795 536.024 164.226C543.494 190.132 547.935 212.695 549.606 233.202C551.596 257.688 549.796 279.967 544.104 301.307C537.747 325.134 526.715 347.28 510.374 369.012C482.467 406.128 392.904 461.991 292.577 504.86C251.534 522.395 211.753 536.411 175.905 546.017L175.906 546.02ZM406.657 3.66984C397.943 6.0049 389.708 10.7591 382.215 17.8622C359.307 39.5746 325.757 65.3149 292.47 86.7211C263.882 105.104 220.95 129.724 178.781 142.593C148.449 151.852 113.684 173.448 83.405 201.853C55.3493 228.17 37.0567 254.932 35.6689 271.695C34.815 281.998 31.8311 295.547 28.055 312.703C19.6901 350.697 7.05342 408.112 2.19842 496.583C0.628546 525.219 12.6245 544.393 37.8567 553.578C62.814 562.659 99.9602 561.997 148.265 551.609C190.628 542.499 240.382 525.99 292.15 503.869C392.323 461.068 481.703 405.348 509.507 368.368C525.762 346.748 536.735 324.727 543.056 301.034C548.717 279.814 550.508 257.657 548.525 233.296C544.809 187.592 527.873 140.117 511.499 94.2036C494.249 45.835 463.823 11.0825 432.094 3.51177C423.333 1.41964 414.785 1.49575 406.658 3.67334L406.657 3.66984Z" fill="white"/>
<path d="M177.011 526.803C169.556 528.801 162.295 530.586 155.251 532.147C110.832 541.992 76.6395 542.833 53.6166 534.645C30.3444 526.367 19.1726 508.938 20.4104 482.842C23.5691 403.993 34.2911 349.355 41.3839 313.203C44.7141 296.231 47.3428 282.826 48.1451 272.484C49.4476 255.767 66.3295 229.967 92.2034 205.148C119.909 178.572 152.316 158.098 181.117 148.973C219.852 136.945 259.374 114.572 285.705 97.9259C316.64 78.3673 346.795 55.7959 368.437 35.9924C382.097 23.4979 398.316 19.1257 415.346 23.3482C444.907 30.6758 473.158 62.8975 489.074 107.446C504.13 149.461 519.7 192.907 523.127 235.725C524.933 258.279 523.267 278.817 518.035 298.514C512.201 320.484 502.091 340.914 487.142 360.97C461.587 395.485 379.402 447.509 287.288 487.484C248.42 504.35 210.758 517.765 177.008 526.808L177.011 526.803ZM390.964 24.3741C383.201 26.4542 375.851 30.5964 369.129 36.7435C347.445 56.5846 317.238 79.1998 286.254 98.7865C259.868 115.466 220.265 137.884 181.426 149.946C152.771 159.026 120.509 179.412 92.914 205.883C67.2131 230.535 50.4518 256.086 49.1673 272.562C48.3625 282.965 45.7254 296.395 42.3922 313.398C35.3033 349.522 24.5936 404.108 21.4381 482.885C20.2245 508.484 31.1666 525.574 53.966 533.683C76.8025 541.804 110.807 540.95 155.036 531.148C193.903 522.536 239.496 507.108 286.889 486.542C378.856 446.632 460.867 394.745 486.329 360.356C501.205 340.406 511.255 320.09 517.056 298.248C522.259 278.664 523.914 258.241 522.116 235.801C518.699 193.115 503.153 149.734 488.117 107.781C472.314 63.551 444.338 31.5774 415.103 24.3312C406.794 22.2718 398.673 22.3046 390.963 24.3706L390.964 24.3741Z" fill="white"/>
<path d="M178.189 507.605C172.668 509.085 167.273 510.429 162.006 511.638C121.674 520.898 90.6337 521.928 69.7484 514.707C48.9383 507.515 38.8328 492.191 39.7149 469.161C41.1993 399.513 49.7105 349.651 55.9259 313.248C58.747 296.727 60.9722 283.677 61.7134 273.359C62.928 256.692 77.8962 232.72 101.753 209.232C126.779 184.592 156.677 165.333 183.779 156.389C247.981 136.047 321.595 84.5554 355.414 54.9101C367.978 43.9081 382.828 40.2177 398.364 44.2408C425.403 51.24 451.179 80.671 465.635 121.048C478.713 157.331 493.531 198.458 496.658 238.24C498.276 258.861 496.747 277.659 491.978 295.71C486.662 315.826 477.484 334.537 463.92 352.918C452.274 368.93 428.244 388.831 394.428 410.461C361.949 431.239 322.018 452.421 282.002 470.108C245.335 486.313 209.804 499.134 178.192 507.605L178.189 507.605ZM375.244 45.0671C368.44 46.8903 361.981 50.423 356.041 55.6263C322.164 85.3244 248.407 136.91 184.071 157.296C157.107 166.196 127.344 185.373 102.419 209.911C78.7253 233.239 63.8614 256.985 62.6616 273.428C61.9176 283.791 59.6866 296.861 56.8615 313.41C50.6536 349.785 42.1505 399.606 40.6642 469.191C39.8008 491.759 49.6901 506.767 70.0585 513.808C90.7741 520.969 121.635 519.927 161.79 510.707C197.159 502.586 238.597 488.246 281.611 469.235C321.586 451.566 361.467 430.409 393.909 409.656C427.622 388.091 451.563 368.278 463.143 352.355C476.639 334.071 485.766 315.462 491.047 295.469C495.788 277.522 497.311 258.828 495.7 238.316C492.585 198.662 477.787 157.598 464.728 121.373C450.377 81.2903 424.854 52.0877 398.117 45.1651C390.24 43.1246 382.542 43.1116 375.241 45.068L375.244 45.0671Z" fill="white"/>
<path d="M179.456 488.432C175.821 489.406 172.254 490.313 168.745 491.153C132.499 499.823 104.616 501.049 85.8646 494.796C67.5208 488.678 58.4877 475.453 59.014 455.489C58.817 394.399 65.6335 346.861 70.612 312.153C72.7572 297.195 74.6096 284.279 75.2755 274.24C76.3851 257.866 89.8516 235.091 111.293 213.322C133.655 190.621 161.043 172.571 186.434 163.808C211.831 155.568 241.887 141.168 273.364 122.161C298.629 106.905 323.785 89.2885 342.388 73.8286C353.854 64.3123 367.342 61.3052 381.391 65.1386C405.901 71.8226 429.196 98.4602 442.187 134.659C455.961 172.614 467.573 206.799 470.179 240.764C471.614 259.453 470.216 276.514 465.909 292.92C461.116 311.177 452.865 328.175 440.686 344.881C430.148 359.682 408.456 378.026 377.955 397.929C348.774 416.969 312.813 436.443 276.695 452.764C242.254 468.324 208.887 480.557 179.451 488.445L179.456 488.432ZM359.494 65.742C353.655 67.3066 348.1 70.2375 342.953 74.509C324.32 89.9957 299.122 107.642 273.823 122.918C242.287 141.96 212.168 156.392 186.715 164.647C161.458 173.366 134.195 191.334 111.928 213.942C90.6308 235.564 77.2583 258.131 76.1646 274.298C75.4966 284.371 73.641 297.303 71.4926 312.277C66.518 346.957 59.7061 394.456 59.905 455.498C59.3892 475.039 68.2171 487.974 86.1484 493.952C104.743 500.153 132.463 498.918 168.543 490.289C200.421 482.657 237.695 469.403 276.336 451.942C312.414 435.64 348.333 416.192 377.475 397.174C407.884 377.333 429.492 359.067 439.97 344.349C452.086 327.731 460.288 310.832 465.055 292.685C469.335 276.376 470.725 259.41 469.299 240.823C466.701 206.973 455.109 172.85 441.358 134.952C428.461 99.0205 405.396 72.5949 381.161 65.987C373.706 63.9534 366.406 63.8863 359.5 65.7367L359.494 65.742Z" fill="white"/>
<path d="M180.839 469.303C179.031 469.787 177.243 470.252 175.468 470.697C143.311 478.782 118.58 480.201 101.962 474.912C86.086 469.86 78.127 458.726 78.3122 441.814C76.3466 388.48 81.5984 342.632 85.4334 309.156C86.9539 295.883 88.2691 284.418 88.834 275.122C89.8564 258.786 101.521 237.753 120.833 217.412C140.552 196.644 165.427 179.811 189.087 171.231C236.312 155.471 294.902 119.499 329.358 92.7481C339.738 84.7066 351.869 82.3854 364.437 86.0351C386.405 92.4147 407.214 116.257 418.741 148.262C430.575 180.6 441.386 212.201 443.702 243.276C444.951 260.029 443.688 275.354 439.844 290.115C435.573 306.515 428.249 321.793 417.459 336.826C408.029 350.416 388.671 367.214 361.483 385.394C335.602 402.699 303.605 420.466 271.388 435.423C239.21 450.358 208.043 462.014 180.84 469.306L180.839 469.303ZM343.7 86.395C338.844 87.6961 334.199 90.0348 329.864 93.3918C295.355 120.183 236.665 156.215 189.36 172C165.828 180.535 141.067 197.293 121.434 217.974C102.25 238.179 90.6703 259.025 89.6606 275.17C89.0934 284.486 87.7775 295.962 86.2563 309.246C82.4218 342.696 77.1755 388.509 79.1378 441.802C78.9585 458.331 86.7224 469.199 102.217 474.129C118.687 479.37 143.267 477.947 175.273 469.899C203.656 462.755 236.777 450.583 271.044 434.672C303.222 419.734 335.18 401.991 361.029 384.706C388.134 366.582 407.415 349.862 416.791 336.35C427.528 321.398 434.808 306.207 439.053 289.907C442.876 275.234 444.129 259.999 442.889 243.337C440.582 212.364 429.787 180.823 417.976 148.541C406.537 116.779 385.941 93.1311 364.217 86.8245C357.158 84.7745 350.241 84.65 343.706 86.401L343.7 86.395Z" fill="white"/>
<path d="M182.383 450.224L182.183 450.278C154.114 457.78 132.536 459.392 118.052 455.072C104.641 451.075 97.7655 442.011 97.6174 428.136C93.6387 381.648 97.5052 336.227 100.329 303.063C101.213 292.676 101.979 283.708 102.405 275.996C103.324 259.932 113.525 240.066 130.383 221.496C147.484 202.658 169.853 187.036 191.751 178.643C212.1 171.617 235.402 160.765 261.026 146.391C280.3 135.577 300.459 122.918 316.34 111.657C325.64 105.085 336.421 103.451 347.527 106.934C366.947 113.023 385.253 134.07 395.302 161.863C405.292 188.873 415.21 217.604 417.232 245.791C418.293 260.612 417.166 274.192 413.784 287.316C410.034 301.856 403.639 315.42 394.232 328.776C377.735 353.322 326.226 389.229 266.068 418.116C236.209 432.456 207.277 443.554 182.383 450.224ZM327.834 107.015C323.975 108.049 320.265 109.807 316.772 112.275C300.872 123.549 280.684 136.227 261.39 147.05C235.731 161.445 212.384 172.313 192.005 179.35C170.226 187.7 147.964 203.245 130.938 222.002C114.193 240.449 104.068 260.145 103.156 276.038C102.727 283.759 101.963 292.734 101.077 303.125C98.2534 336.262 94.3915 381.645 98.3678 428.096C98.5147 441.63 105.209 450.451 118.266 454.344C132.614 458.622 154.054 457.009 181.986 449.544L182.186 449.49C207.035 442.832 235.919 431.75 265.738 417.429C325.786 388.594 377.169 352.792 393.606 328.34C402.963 315.054 409.321 301.572 413.049 287.119C416.409 274.08 417.53 260.577 416.476 245.839C414.462 217.752 404.56 189.081 394.59 162.117C384.618 134.54 366.497 113.668 347.3 107.651C340.606 105.552 334.028 105.351 327.84 107.01L327.834 107.015Z" fill="white"/>
<path d="M184.038 431.269C162.404 437.066 145.625 438.426 134.118 435.309C123.177 432.343 117.39 425.341 116.915 414.487C110.329 373.968 113.096 326.613 115.116 292.031C115.432 286.604 115.731 281.481 115.964 276.877C116.797 260.829 125.307 242.615 139.923 225.586C154.663 208.418 174.011 194.381 194.403 186.062C208.665 180.922 247.801 165.239 303.314 130.575C311.546 125.462 321.001 124.517 330.658 127.853C347.499 133.669 363.285 151.915 371.853 175.467C380.095 197.453 389.032 223.026 390.752 248.308C392.572 275.027 386.11 298.713 370.999 320.727C363.776 331.916 349.082 345.632 328.517 360.388C308.93 374.441 285.491 388.436 260.735 400.857C235.169 413.683 210.321 423.736 188.878 429.923C187.239 430.396 185.623 430.844 184.034 431.27L184.038 431.269ZM311.871 127.582C309.037 128.341 306.294 129.537 303.68 131.159C294.798 136.705 276.687 147.713 255.175 159.116C232.59 171.091 212.23 180.371 194.654 186.703C174.373 194.977 155.119 208.944 140.451 226.032C125.935 242.945 117.484 261.012 116.659 276.909C116.426 281.512 116.127 286.638 115.813 292.069C113.793 326.625 111.028 373.946 117.607 414.395L117.61 414.436C118.062 424.966 123.678 431.763 134.303 434.641C146.359 437.907 165.168 436.048 188.692 429.258C210.097 423.08 234.901 413.047 260.431 400.238C285.154 387.833 308.563 373.857 328.123 359.827C348.619 345.123 363.247 331.469 370.432 320.347C385.457 298.461 391.877 274.914 390.072 248.359C388.358 223.169 379.439 197.651 371.214 175.713C362.714 152.345 347.092 134.262 330.44 128.511C324.06 126.305 317.767 126.009 311.88 127.587L311.871 127.582Z" fill="white"/>
<path d="M186.406 412.355C171.044 416.472 158.633 417.62 150.172 415.669C141.675 413.708 136.982 408.717 136.218 400.829C125.596 365.708 128.352 304.077 129.525 277.755C131.051 244.867 158.822 210.211 197.058 193.481C227.878 181.761 263.034 163.581 284.04 152.723C286.269 151.571 288.364 150.489 290.298 149.491C297.484 145.816 305.644 145.582 313.883 148.806C328.113 154.375 341.339 169.803 348.408 189.073C355.858 208.578 362.934 229.558 364.276 250.827C365.708 273.522 360.311 293.753 347.77 312.68C335.729 332.335 299.474 360.198 255.407 383.657C234.218 394.936 213.529 403.926 195.578 409.658C192.417 410.666 189.356 411.569 186.403 412.36L186.406 412.355ZM295.738 148.06C293.971 148.533 292.251 149.196 290.582 150.048C288.648 151.042 286.556 152.124 284.327 153.279C263.312 164.144 228.137 182.336 197.297 194.061C159.282 210.695 131.667 245.125 130.152 277.785C128.976 304.083 126.223 365.667 136.827 400.681L136.843 400.74C137.566 408.35 142.097 413.168 150.313 415.062C160.293 417.363 175.882 415.288 195.392 409.063C213.309 403.345 233.965 394.371 255.117 383.109C299.089 359.698 335.251 331.924 347.247 312.349C375.094 270.322 362.802 228.519 347.827 189.3C340.816 170.187 327.724 154.898 313.658 149.395C307.505 146.986 301.407 146.548 295.743 148.066L295.738 148.06Z" fill="white"/>
<path d="M189.157 393.77C179.767 396.286 171.939 397.184 166.263 396.263C160.15 395.267 156.539 392.214 155.53 387.191C149.924 378.36 146.083 361.77 144.106 337.879C142.666 320.473 142.295 298.88 143.091 278.634C144.416 246.145 165.584 217.088 199.718 200.902C211.872 195.94 224.455 190.52 236.623 185.277C252.362 178.497 267.228 172.097 277.286 168.406C285.761 165.333 295.456 167.411 304.582 174.253C313.234 180.739 320.659 191.098 324.965 202.675C335.303 229.042 337.255 243.602 337.803 253.343C338.851 272.004 334.513 288.782 324.544 304.63C314.674 321.934 286.167 345.66 250.148 366.536C227.14 379.872 205.72 389.336 189.158 393.773L189.157 393.77ZM279.318 168.352C278.699 168.518 278.087 168.712 277.479 168.931C267.435 172.615 252.579 179.012 236.847 185.79C224.675 191.034 212.088 196.452 199.944 201.411C166.017 217.5 144.965 246.377 143.651 278.653C142.857 298.879 143.226 320.447 144.663 337.831C146.634 361.671 150.461 378.194 156.031 386.933L156.058 386.978L156.071 387.027C157.013 391.829 160.469 394.75 166.351 395.711C181.917 398.25 213.919 386.884 249.864 366.05C285.802 345.222 314.233 321.577 324.062 304.343C333.973 288.589 338.281 271.921 337.242 253.377C336.206 234.914 329.857 216.691 324.439 202.88C320.172 191.394 312.813 181.126 304.245 174.703C295.931 168.471 287.156 166.256 279.319 168.356L279.318 168.352Z" fill="white"/>
<path d="M192.703 375.81C188.82 376.851 185.447 377.376 182.71 377.334C178.706 377.268 176.071 376.011 174.879 373.592C166.396 370.061 161.933 351.558 159.681 336.632C157.143 319.797 156.011 298.446 156.651 279.508C157.222 263.211 161.113 249.588 168.546 237.855C176.139 225.874 187.203 216.214 202.372 208.317C225.729 197.795 250.028 189.557 264.285 187.325C271.235 186.268 278.976 188.877 286.08 194.665C292.725 200.082 298.353 207.959 301.516 216.279C310.426 238.102 318.455 266.945 301.313 296.576C293.682 311.419 272.739 331.159 245.298 349.362C225.245 362.666 205.993 372.249 192.699 375.811L192.703 375.81ZM252.202 190.492C238.264 194.226 220.161 200.845 202.592 208.76C187.514 216.606 176.514 226.211 168.969 238.116C161.582 249.773 157.715 263.315 157.149 279.52C155.947 314.914 160.74 367.366 175.155 373.166L175.243 373.202L175.285 373.288C176.368 375.579 178.869 376.771 182.718 376.834C194.739 377.029 219.197 366.081 245.029 348.943C272.402 330.785 293.286 311.117 300.884 296.332C317.923 266.878 309.928 238.172 301.06 216.454L301.058 216.447C297.924 208.205 292.349 200.4 285.767 195.038C278.773 189.336 271.171 186.769 264.361 187.803C260.86 188.352 256.751 189.265 252.2 190.485L252.202 190.492Z" fill="white"/>
<path d="M198.379 359.562C196.704 360.011 195.342 360.147 194.351 359.937C191.665 361.091 189.093 360.855 186.708 359.246C179.729 354.537 175.723 339.209 173.589 327.173C171.05 312.856 169.794 295.363 170.222 280.379C170.716 263.428 173.145 251.575 178.101 241.941C183.383 231.669 191.947 223.339 205.041 215.728C220.206 207.828 238.366 204.108 251.309 206.249C262.925 208.22 274.043 219.808 278.078 229.872C287.115 250.485 287.119 270.217 278.095 288.512C274.891 295.867 269.063 304.202 260.783 313.281C253.612 321.14 244.784 329.321 235.242 336.935C220.307 348.857 206.067 357.495 198.381 359.554L198.379 359.562ZM194.307 359.492L194.375 359.507C195.327 359.728 196.649 359.598 198.283 359.161C215.201 354.627 265.292 316.816 277.7 288.341C286.67 270.153 286.662 250.546 277.676 230.051L277.674 230.044C273.683 220.088 262.7 208.625 251.229 206.679C238.372 204.553 220.317 208.255 205.237 216.11C192.224 223.673 183.716 231.943 178.469 242.142C173.546 251.715 171.132 263.512 170.638 280.394C170.211 295.353 171.469 312.811 174.001 327.104C176.121 339.057 180.085 354.273 186.937 358.896C189.212 360.43 191.668 360.641 194.236 359.518L194.299 359.49L194.307 359.492Z" fill="white"/>
<path d="M206.821 350.849C205.145 351.298 203.511 351.203 201.928 350.556C197.959 348.941 192.314 342.972 187.945 323.727C185.017 310.826 183.46 294.953 183.778 281.265C184.153 265.088 184.601 254.642 187.638 246.051C190.78 237.162 196.588 230.529 207.693 223.162C213.811 219.102 220.334 217.935 227.074 219.692C241.649 223.497 252.674 239.68 254.623 243.482C258.262 250.584 259.262 259.297 257.591 269.38C256.153 278.061 252.745 287.774 247.459 298.261C237.906 317.212 223.77 335.431 213.728 346.162C211.364 348.687 209.054 350.254 206.822 350.852L206.821 350.849ZM215.381 220.008C212.828 220.692 210.331 221.841 207.893 223.461C196.862 230.781 191.091 237.359 187.978 246.17C184.961 254.714 184.513 265.13 184.14 281.273C183.56 306.23 189.608 345.146 202.064 350.224C205.6 351.666 209.434 350.216 213.459 345.915C223.484 335.204 237.595 317.018 247.131 298.098C252.399 287.646 255.797 277.965 257.227 269.321C258.884 259.315 257.897 250.678 254.296 243.648C252.363 239.876 241.422 223.813 226.977 220.044C223.023 219.013 219.143 219.004 215.375 220.013L215.381 220.008Z" fill="white"/>
</svg>
